# xmcd
#
# Track frame offsets: 
#        183
#        22923
#        40793
#        59110
#        91803
#        122033
#        162180
#        179823
#        201518
#        224518
#        248225
#        267933
#        287575
#        304478
#        317828
#
# Disc length: 4520 seconds
#
# Revision: 7
# Processed by: cddbd v1.5.2PL0 Copyright (c) Steve Scherf et al.
# Submitted via: ExactAudioCopy v0.99pb4
#
DISCID=e711a60f
DTITLE=John Mayall - Room to Move 1971-1974 | CD2
DYEAR=1992
DGENRE=Blues
TTITLE0=Memories
TTITLE1=Nobody cares
TTITLE2=Bad luck time
TTITLE3=Country road
TTITLE4=Dry throat
TTITLE5=Worried mind
TTITLE6=Red sky
TTITLE7=Ten years are gone
TTITLE8=Driving till the break of day
TTITLE9=Better pass you by
TTITLE10=I still care
TTITLE11=Brand new band
TTITLE12=Gasoline blues
TTITLE13=Going to take my time
TTITLE14=Deep down feelings
EXTD=YEAR: 1992
EXTT0=
EXTT1=
EXTT2=
EXTT3=
EXTT4=
EXTT5=
EXTT6=
EXTT7=
EXTT8=
EXTT9=
EXTT10=
EXTT11=
EXTT12=
EXTT13=
EXTT14=
PLAYORDER=
